# xmcd
#
# Track frame offsets:
#	150
#	31820
#	55937
#	76489
#	106099
#	127813
#	149711
#	178751
#
# Disc length: 2740 seconds
# Revision: 0
# Processed by: cddbd v1.5.2PL0 Copyright (c) Steve Scherf et al.
# Submitted via: dBpowerAMP V12.0
#
DISCID=660ab208
DTITLE=Bob Dorr and the Blue Band - Fan Fair Favorites - Iowa State Fair 2003 Early Show
DYEAR=1900
DGENRE=Blues
TTITLE0=a Good Song (Is About a Woman)
TTITLE1=Hang Tough
TTITLE2=The Richest Man on Lonely Street
TTITLE3=The Walk
TTITLE4=Hoochie Coochie Queen
TTITLE5=No Money Down
TTITLE6=Seventh Son
TTITLE7=Come to Papa
EXTD=
EXTT0=
EXTT1=
EXTT2=
EXTT3=
EXTT4=
EXTT5=
EXTT6=
EXTT7=
PLAYORDER=
